<svg width="50" height="42" viewBox="0 0 50 42" fill="none" xmlns="http://www.w3.org/2000/svg">
<path d="M40.7574 3.8028L32.8293 6.14576H16.6605L8.71289 3.7809L16.9144 1H33.0831L40.7574 3.8028Z" fill="#7158A5" stroke="white" stroke-width="0.25" stroke-miterlimit="10"/>
<path d="M16.661 6.14611L11.4081 17.1821L1 12.8465L8.71335 3.78125L16.661 6.14611Z" fill="#7158A5" stroke="white" stroke-width="0.25" stroke-miterlimit="10"/>
<path d="M49.0008 12.9998L38.495 17.1821L32.832 6.14611L41.0336 3.78125L49.0008 12.9998Z" fill="#7158A5" stroke="white" stroke-width="0.25" stroke-miterlimit="10"/>
<path d="M24.7461 40.8231L38.4739 17.1745V17.1526L38.4934 17.1307L48.9992 12.9922" fill="#7158A5"/>
<path d="M24.7461 40.8231L38.4739 17.1745V17.1526L38.4934 17.1307L48.9992 12.9922" stroke="white" stroke-width="0.25" stroke-miterlimit="10"/>
<path d="M48.9992 12.9922L24.7461 40.8231" stroke="white" stroke-width="0.25" stroke-miterlimit="10"/>
<path d="M24.2592 40.4114L1.41211 13.2812L11.3125 17.376V17.4198H11.293C15.6086 24.9742 19.9241 32.5505 24.2397 40.1049" fill="#7158A5"/>
<path d="M24.2592 40.4114L1.41211 13.2812L11.3125 17.376V17.4198H11.293C15.6086 24.9742 19.9241 32.5505 24.2397 40.1049" stroke="white" stroke-width="0.25" stroke-miterlimit="10"/>
<path d="M24.4916 40.1354C20.137 32.4934 15.7824 24.8295 11.4082 17.1875H11.4277L24.4721 40.1354" fill="#16B8B9"/>
<path d="M24.4916 40.1354C20.137 32.4934 15.7824 24.8295 11.4082 17.1875H11.4277L24.4721 40.1354" stroke="white" stroke-width="0.25" stroke-miterlimit="10"/>
<path d="M24.765 41.0001L11.4473 17.3516H38.4733L24.765 41.0001Z" fill="#7158A5" stroke="white" stroke-width="0.25" stroke-miterlimit="10"/>
<path d="M38.4928 17.1844H11.4082L11.4277 17.1625L16.6611 6.14844H32.8298L38.4733 17.1625L38.4928 17.1844Z" fill="#7158A5" stroke="white" stroke-width="0.25" stroke-miterlimit="10"/>
</svg>
