<?xml version="1.0" encoding="UTF-8"?>
<svg id="Layer_2" data-name="Layer 2" xmlns="http://www.w3.org/2000/svg" viewBox="0 0 2402.61 720.77">
  <defs>
    <style>
      .cls-1, .cls-2, .cls-3 {
        stroke-width: 2px;
      }

      .cls-1, .cls-2, .cls-3, .cls-4 {
        stroke: #fff;
        stroke-miterlimit: 10;
      }

      .cls-1, .cls-4 {
        fill: #7f47dd;
      }

      .cls-5 {
        letter-spacing: .39em;
      }

      .cls-2 {
        fill: #14b8ba;
      }

      .cls-6 {
        font-family: Montserrat-ExtraLight, Montserrat;
        font-size: 231.7px;
        font-weight: 200;
      }

      .cls-6, .cls-7 {
        fill: #fff;
      }

      .cls-3 {
        fill: #3ebfc2;
      }

      .cls-8 {
        letter-spacing: .4em;
      }

      .cls-7 {
        stroke-width: 0px;
      }

      .cls-9 {
        letter-spacing: .39em;
      }

      .cls-10 {
        letter-spacing: .4em;
      }

      .cls-4 {
        stroke-width: .2px;
      }

      .cls-11 {
        letter-spacing: .4em;
      }
    </style>
  </defs>
  <g id="diamond_icon" data-name="diamond icon">
    <g>
      <path class="cls-7" d="M46.79,461.06V120.46h98.56c125.78,0,188.66,55.34,188.66,166.03,0,52.57-17.46,94.81-52.39,126.72-34.93,31.91-81.68,47.86-140.25,47.86H46.79ZM88.61,156.56v268.4h53.26c46.79,0,83.21-11.95,109.27-35.87,26.05-23.91,39.08-57.8,39.08-101.66,0-87.25-48.62-130.87-145.85-130.87h-55.75Z"/>
      <path class="cls-7" d="M446.02,461.06h-41.81V120.46h41.81v340.6Z"/>
      <path class="cls-7" d="M816.14,461.06h-46.29l-37.83-95.48h-151.33l-35.59,95.48h-46.54l136.89-340.6h43.31l137.39,340.6ZM718.32,329.71l-56-145.12c-1.83-4.75-3.65-12.35-5.48-22.8h-.99c-1.66,9.66-3.57,17.26-5.72,22.8l-55.51,145.12h123.7Z"/>
      <path class="cls-7" d="M1232.54,461.06h-41.57v-228.5c0-18.05,1.16-40.14,3.48-66.27h-.99c-3.98,15.36-7.55,26.37-10.7,33.02l-121.96,261.75h-20.41l-121.71-259.85c-3.48-7.6-7.05-19.24-10.7-34.92h-1c1.33,13.62,1.99,35.87,1.99,66.74v228.02h-40.32V120.46h55.26l109.52,237.52c8.46,18.21,13.94,31.83,16.43,40.85h1.49c7.13-18.68,12.86-32.62,17.17-41.8l111.76-236.57h52.27v340.6Z"/>
      <path class="cls-7" d="M1470.24,466.76c-50.61,0-91.14-15.91-121.59-47.74-30.45-31.83-45.67-73.23-45.67-124.22,0-54.79,15.51-98.49,46.54-131.11,31.03-32.62,73.26-48.93,126.69-48.93,49.28,0,88.98,15.84,119.1,47.5,30.12,31.67,45.18,73.08,45.18,124.22,0,55.58-15.43,99.52-46.29,131.82s-72.18,48.45-123.95,48.45ZM1473.23,150.86c-37.5,0-67.95,12.91-91.35,38.72-23.4,25.81-35.09,59.7-35.09,101.66s11.41,75.73,34.22,101.3c22.81,25.58,52.56,38.36,89.23,38.36,39.16,0,70.02-12.19,92.59-36.58,22.56-24.38,33.85-58.51,33.85-102.37s-10.95-79.72-32.85-104.27c-21.9-24.54-52.11-36.82-90.6-36.82Z"/>
      <path class="cls-7" d="M1998.4,461.06h-51.27l-183.69-271.49c-4.65-6.81-8.46-13.93-11.45-21.38h-1.49c1.33,7.29,1.99,22.88,1.99,46.79v246.07h-41.81V120.46h54.26l178.71,267.21c7.47,11.09,12.28,18.69,14.44,22.8h1c-1.66-9.82-2.49-26.52-2.49-50.12V120.46h41.81v340.6Z"/>
      <path class="cls-7" d="M2091.99,461.06V120.46h98.56c125.78,0,188.66,55.34,188.66,166.03,0,52.57-17.46,94.81-52.39,126.72-34.93,31.91-81.68,47.86-140.25,47.86h-94.58ZM2133.8,156.56v268.4h53.26c46.79,0,83.21-11.95,109.27-35.87,26.05-23.91,39.08-57.8,39.08-101.66,0-87.25-48.62-130.87-145.86-130.87h-55.75Z"/>
    </g>
    <text class="cls-6" transform="translate(270.7 660.53) scale(1.04 1)"><tspan class="cls-11" x="0" y="0">c</tspan><tspan class="cls-9" x="219.88" y="0">r</tspan><tspan class="cls-5" x="399.21" y="0">e</tspan><tspan class="cls-10" x="625.35" y="0">ati</tspan><tspan class="cls-5" x="1187.21" y="0">v</tspan><tspan class="cls-8" x="1396.2" y="0">es</tspan></text>
    <g>
      <polygon class="cls-1" points="1139.93 17.47 1093.75 31.12 999.56 31.12 953.18 17.26 1000.99 1 1095.19 1 1139.93 17.47"/>
      <polygon class="cls-1" points="999.56 31.12 968.96 95.67 908.24 70.33 953.18 17.26 999.56 31.12"/>
      <polyline class="cls-1" points="1187.94 71.29 1126.74 95.67 1093.75 31.12 1141.56 17.26 1187.94 71.29"/>
      <polyline class="cls-1" points="1046.61 234.07 1126.6 95.67 1126.67 95.54 1126.74 95.43 1187.94 71.29"/>
      <line class="cls-3" x1="1187.94" y1="71.29" x2="1046.61" y2="234.07"/>
      <path class="cls-1" d="M1043.79,231.65l-133.15-158.78,57.71,23.95.07.11.08.14h-.14c25.14,44.24,50.29,88.49,75.44,132.74"/>
      <path class="cls-2" d="M1045.16,229.93c-25.4-44.75-50.8-89.51-76.2-134.26h.14l76.06,134.26"/>
      <polyline class="cls-4" points="1046.76 235.08 969.1 96.77 1126.6 96.77 1046.76 235.08"/>
      <polygon class="cls-1" points="1126.74 95.67 968.96 95.67 969.03 95.53 999.56 31.12 1093.75 31.12 1126.67 95.54 1126.74 95.67"/>
    </g>
  </g>
</svg>