<svg width="108" height="29" viewBox="0 0 108 29" fill="none" xmlns="http://www.w3.org/2000/svg">
<path d="M0.509141 15V0.999999H7.40914C8.96914 0.999999 10.3425 1.28667 11.5291 1.86C12.7158 2.42 13.6425 3.22 14.3091 4.26C14.9758 5.3 15.3091 6.54 15.3091 7.98C15.3091 9.43333 14.9758 10.6867 14.3091 11.74C13.6425 12.78 12.7158 13.5867 11.5291 14.16C10.3425 14.72 8.96914 15 7.40914 15H0.509141ZM5.22914 11.32H7.20914C7.87581 11.32 8.45581 11.1933 8.94914 10.94C9.45581 10.6867 9.84914 10.3133 10.1291 9.82C10.4091 9.31333 10.5491 8.7 10.5491 7.98C10.5491 7.27333 10.4091 6.67333 10.1291 6.18C9.84914 5.68667 9.45581 5.31333 8.94914 5.06C8.45581 4.80667 7.87581 4.68 7.20914 4.68H5.22914V11.32ZM17.0326 15V0.999999H21.7526V15H17.0326ZM22.5048 15L28.6248 0.999999H33.2648L39.3848 15H34.5048L29.9848 3.24H31.8248L27.3048 15H22.5048ZM26.1448 12.56L27.3448 9.16H33.7848L34.9848 12.56H26.1448ZM40.138 15V0.999999H44.018L49.618 10.14H47.578L53.018 0.999999H56.898L56.938 15H52.638L52.598 7.48H53.278L49.558 13.74H47.478L43.598 7.48H44.438V15H40.138ZM66.5601 15.32C65.4267 15.32 64.3734 15.14 63.4001 14.78C62.4401 14.42 61.6067 13.9133 60.9001 13.26C60.1934 12.5933 59.6401 11.8133 59.2401 10.92C58.8534 10.0267 58.6601 9.05333 58.6601 8C58.6601 6.93333 58.8534 5.96 59.2401 5.08C59.6401 4.18667 60.1934 3.41333 60.9001 2.76C61.6067 2.09333 62.4401 1.58 63.4001 1.22C64.3734 0.86 65.4267 0.68 66.5601 0.68C67.7067 0.68 68.7601 0.86 69.7201 1.22C70.6801 1.58 71.5134 2.09333 72.2201 2.76C72.9267 3.41333 73.4734 4.18667 73.8601 5.08C74.2601 5.96 74.4601 6.93333 74.4601 8C74.4601 9.05333 74.2601 10.0267 73.8601 10.92C73.4734 11.8133 72.9267 12.5933 72.2201 13.26C71.5134 13.9133 70.6801 14.42 69.7201 14.78C68.7601 15.14 67.7067 15.32 66.5601 15.32ZM66.5601 11.5C67.0001 11.5 67.4067 11.42 67.7801 11.26C68.1667 11.1 68.5001 10.8733 68.7801 10.58C69.0734 10.2733 69.3001 9.90667 69.4601 9.48C69.6201 9.04 69.7001 8.54667 69.7001 8C69.7001 7.45333 69.6201 6.96667 69.4601 6.54C69.3001 6.1 69.0734 5.73333 68.7801 5.44C68.5001 5.13333 68.1667 4.9 67.7801 4.74C67.4067 4.58 67.0001 4.5 66.5601 4.5C66.1201 4.5 65.7067 4.58 65.3201 4.74C64.9467 4.9 64.6134 5.13333 64.3201 5.44C64.0401 5.73333 63.8201 6.1 63.6601 6.54C63.5001 6.96667 63.4201 7.45333 63.4201 8C63.4201 8.54667 63.5001 9.04 63.6601 9.48C63.8201 9.90667 64.0401 10.2733 64.3201 10.58C64.6134 10.8733 64.9467 11.1 65.3201 11.26C65.7067 11.42 66.1201 11.5 66.5601 11.5ZM76.1732 15V0.999999H80.0532L87.1732 9.52H85.3732V0.999999H89.9732V15H86.0932L78.9732 6.48H80.7732V15H76.1732ZM92.2474 15V0.999999H99.1474C100.707 0.999999 102.081 1.28667 103.267 1.86C104.454 2.42 105.381 3.22 106.047 4.26C106.714 5.3 107.047 6.54 107.047 7.98C107.047 9.43333 106.714 10.6867 106.047 11.74C105.381 12.78 104.454 13.5867 103.267 14.16C102.081 14.72 100.707 15 99.1474 15H92.2474ZM96.9674 11.32H98.9474C99.6141 11.32 100.194 11.1933 100.687 10.94C101.194 10.6867 101.587 10.3133 101.867 9.82C102.147 9.31333 102.287 8.7 102.287 7.98C102.287 7.27333 102.147 6.67333 101.867 6.18C101.587 5.68667 101.194 5.31333 100.687 5.06C100.194 4.80667 99.6141 4.68 98.9474 4.68H96.9674V11.32ZM27.6869 28.044C27.1222 28.044 26.5979 27.9487 26.1139 27.758C25.6299 27.56 25.2082 27.285 24.8489 26.933C24.4895 26.581 24.2109 26.1703 24.0129 25.701C23.8149 25.2243 23.7159 24.7073 23.7159 24.15C23.7159 23.5927 23.8149 23.0793 24.0129 22.61C24.2109 22.1333 24.4895 21.719 24.8489 21.367C25.2082 21.015 25.6299 20.7437 26.1139 20.553C26.5979 20.355 27.1222 20.256 27.6869 20.256C28.2075 20.256 28.6989 20.3403 29.1609 20.509C29.6229 20.6777 30.0225 20.9343 30.3599 21.279L30.1289 21.521C29.7842 21.191 29.4065 20.9563 28.9959 20.817C28.5925 20.6703 28.1599 20.597 27.6979 20.597C27.1845 20.597 26.7079 20.6887 26.2679 20.872C25.8279 21.048 25.4429 21.2973 25.1129 21.62C24.7902 21.9427 24.5372 22.3203 24.3539 22.753C24.1779 23.1783 24.0899 23.644 24.0899 24.15C24.0899 24.656 24.1779 25.1253 24.3539 25.558C24.5372 25.9833 24.7902 26.3573 25.1129 26.68C25.4429 27.0027 25.8279 27.2557 26.2679 27.439C26.7079 27.615 27.1845 27.703 27.6979 27.703C28.1599 27.703 28.5925 27.6333 28.9959 27.494C29.4065 27.3473 29.7842 27.1053 30.1289 26.768L30.3599 27.01C30.0225 27.3547 29.6229 27.615 29.1609 27.791C28.6989 27.9597 28.2075 28.044 27.6869 28.044ZM32.3387 28V20.3H35.0117C35.6497 20.3 36.196 20.4027 36.6507 20.608C37.1127 20.8133 37.4647 21.1067 37.7067 21.488C37.9487 21.862 38.0697 22.3167 38.0697 22.852C38.0697 23.3873 37.9487 23.8457 37.7067 24.227C37.4647 24.6083 37.1127 24.9017 36.6507 25.107C36.196 25.3123 35.6497 25.415 35.0117 25.415H32.5477L32.7127 25.239V28H32.3387ZM37.7507 28L35.7487 25.206H36.1777L38.1907 28H37.7507ZM32.7127 25.239L32.5477 25.074H35.0337C35.899 25.074 36.559 24.8797 37.0137 24.491C37.4757 24.1023 37.7067 23.556 37.7067 22.852C37.7067 22.148 37.4757 21.6053 37.0137 21.224C36.559 20.8353 35.899 20.641 35.0337 20.641H32.5477L32.7127 20.465V25.239ZM40.5422 23.919H44.7882V24.26H40.5422V23.919ZM40.6082 27.659H45.4372V28H40.2342V20.3H45.2832V20.641H40.6082V27.659ZM46.2508 28L49.8148 20.3H50.1778L53.7418 28H53.3348L49.9138 20.553H50.0788L46.6578 28H46.2508ZM47.4828 25.745L47.6258 25.426H52.3338L52.4768 25.745H47.4828ZM56.3173 28V20.641H53.4903V20.3H59.5073V20.641H56.6803V28H56.3173ZM60.9559 28V20.3H61.3299V28H60.9559ZM66.1836 28L62.7296 20.3H63.1476L66.4806 27.747H66.2716L69.6046 20.3H70.0006L66.5466 28H66.1836ZM71.6408 23.919H75.8868V24.26H71.6408V23.919ZM71.7068 27.659H76.5358V28H71.3328V20.3H76.3818V20.641H71.7068V27.659ZM80.6275 28.044C80.0628 28.044 79.5275 27.945 79.0215 27.747C78.5228 27.5417 78.1415 27.285 77.8775 26.977L78.0755 26.713C78.3248 26.9917 78.6768 27.23 79.1315 27.428C79.5935 27.6187 80.0885 27.714 80.6165 27.714C81.1518 27.714 81.5918 27.6407 81.9365 27.494C82.2811 27.3473 82.5341 27.153 82.6955 26.911C82.8641 26.6617 82.9485 26.3867 82.9485 26.086C82.9485 25.734 82.8605 25.4517 82.6845 25.239C82.5085 25.0263 82.2738 24.8577 81.9805 24.733C81.6945 24.6083 81.3791 24.5057 81.0345 24.425C80.6971 24.3443 80.3525 24.26 80.0005 24.172C79.6558 24.0767 79.3368 23.9593 79.0435 23.82C78.7575 23.6733 78.5265 23.4753 78.3505 23.226C78.1818 22.9693 78.0975 22.6393 78.0975 22.236C78.0975 21.8913 78.1891 21.5687 78.3725 21.268C78.5558 20.9673 78.8418 20.7253 79.2305 20.542C79.6191 20.3513 80.1178 20.256 80.7265 20.256C81.1445 20.256 81.5551 20.322 81.9585 20.454C82.3691 20.5787 82.7175 20.7473 83.0035 20.96L82.8385 21.257C82.5305 21.0297 82.1895 20.861 81.8155 20.751C81.4415 20.641 81.0821 20.586 80.7375 20.586C80.2241 20.586 79.7951 20.663 79.4505 20.817C79.1131 20.9637 78.8638 21.1617 78.7025 21.411C78.5411 21.6603 78.4605 21.9353 78.4605 22.236C78.4605 22.5953 78.5485 22.8813 78.7245 23.094C78.9005 23.3067 79.1315 23.4753 79.4175 23.6C79.7108 23.7247 80.0298 23.8273 80.3745 23.908C80.7191 23.9887 81.0638 24.0767 81.4085 24.172C81.7531 24.26 82.0685 24.3773 82.3545 24.524C82.6478 24.6707 82.8788 24.8687 83.0475 25.118C83.2235 25.36 83.3115 25.679 83.3115 26.075C83.3115 26.4197 83.2161 26.7423 83.0255 27.043C82.8421 27.3437 82.5488 27.5857 82.1455 27.769C81.7495 27.9523 81.2435 28.044 80.6275 28.044Z" fill="white"/>
</svg>
