<svg width="296" height="119" viewBox="0 0 296 119" fill="none" xmlns="http://www.w3.org/2000/svg">
<path d="M222.821 14.8924V35.1546C222.821 35.388 223.01 35.5711 223.24 35.5711H232.114C232.349 35.5711 232.538 35.3789 232.533 35.1454L232.33 23.8724C232.33 23.7671 232.289 23.6664 232.215 23.5886L223.545 14.5995C223.282 14.3248 222.816 14.5125 222.816 14.8878L222.821 14.8924Z" fill="black" stroke="black" stroke-miterlimit="10"/>
<path d="M1 21.1479V3.18785C1 1.97496 1.99563 0.990909 3.21711 1.00006L73.6438 1.48522C75.128 1.49438 76.1743 2.93154 75.7272 4.33209L72.5605 14.2412C72.496 14.4426 72.4084 14.6303 72.2978 14.8088L56.9532 39.68C55.8884 41.4055 57.1376 43.6253 59.1795 43.6253H72.6113C74.054 43.6253 75.2202 44.7833 75.2202 46.2159V61.4205C75.2202 62.8623 74.0355 64.0248 72.5836 64.0111L44.5909 63.7228C43.6828 63.7136 42.8347 64.1759 42.3507 64.9402L35.4781 75.8426C34.3903 77.5681 35.6395 79.8062 37.6906 79.8062H79.3363C80.7791 79.8062 81.9452 80.9642 81.9452 82.3968V98.1095C81.9452 99.3132 80.968 100.288 79.7558 100.297L3.2125 100.709C1.99102 100.714 1 99.7343 1 98.5214V87.3719C1 86.0766 1.38258 84.8134 2.09703 83.7332L39.1979 27.7524C40.341 26.0315 39.0965 23.7384 37.0177 23.7384H3.60891C2.16617 23.7384 1 22.5804 1 21.1479Z" fill="black" stroke="black" stroke-miterlimit="10"/>
<path d="M74.926 46.1894L68.1779 52.5193C67.5372 53.1189 66.6983 53.4622 65.8179 53.4759L39.5491 53.9611C38.2815 53.9839 37.1107 54.6384 36.4377 55.7049L23.8173 75.6421C23.4992 76.141 23.4946 77.0106 24.398 77.0381L35.1471 76.3378C35.2762 76.2921 35.5619 75.6971 35.6357 75.578L42.8448 64.1448C42.96 63.9617 43.1582 63.8519 43.3748 63.8565L71.4091 64.1448C74.3729 64.3782 75.1196 62.5246 75.1196 60.497V46.2763C75.1196 46.1253 75.032 46.0887 74.9214 46.1894H74.926Z" fill="black"/>
<path d="M81.7513 81.778L71.6061 90.9777H12.1636L1.36842 99.0377C0.783031 99.5778 1.78788 100.717 2.5853 100.713L79.3867 100.292C80.6958 100.283 81.7513 99.23 81.7513 97.9301V81.7734V81.778Z" fill="black"/>
<path d="M103.458 2.89046L119.992 50.6465C120.319 51.5939 121.66 51.6122 122.015 50.6739L140.079 2.863C140.236 2.44649 140.637 2.17188 141.084 2.17188H148.805C149.266 2.17188 149.672 2.46022 149.824 2.89046L165.348 47.5525C166.026 49.4977 168.796 49.5068 169.483 47.5616L185.256 2.88588C185.408 2.45565 185.814 2.17188 186.27 2.17188H204.998C205.735 2.17188 206.256 2.89504 206.017 3.58616L177.088 87.4681C176.77 88.3835 175.903 89.0014 174.931 89.0014H160.974C160.517 89.0014 160.116 88.7177 159.96 88.292C155.29 75.3483 150.616 62.4001 145.947 49.4565C145.601 48.5045 144.242 48.5136 143.914 49.4748C139.494 62.4093 135.074 75.3438 130.658 88.2783C130.51 88.7131 130.1 89.0014 129.639 89.0014H112.995C112.538 89.0014 112.133 88.7131 111.981 88.2874L82.0105 3.59531C81.7662 2.89961 82.2825 2.17188 83.0246 2.17188H102.439C102.9 2.17188 103.306 2.46022 103.458 2.89046Z" fill="black"/>
<path d="M204.938 2.89844C205.341 2.89844 205.624 3.26484 205.546 3.63574L205.525 3.70996L176.447 88.2705H163.931L170.174 79.6211L170.211 79.5693L170.234 79.5098L200.085 2.89844H204.938Z" fill="black" stroke="black"/>
<path d="M142.306 36.0088C142.31 36.0123 142.315 36.0197 142.32 36.04L143.933 48.416L129.793 88.2715H115.996L123.457 78.6328L123.494 78.584L123.52 78.5283L142.196 36.0312C142.206 36.009 142.216 36.0028 142.221 36C142.229 35.9954 142.245 35.9911 142.265 35.9932C142.284 35.9953 142.298 36.0027 142.306 36.0088Z" fill="black" stroke="black"/>
<path d="M13.5977 14.3828H42.2354C42.4658 14.3828 42.5674 14.6491 42.4209 14.8018L34.2061 23.2373H3.22559L11.4473 15.2529H11.4482C12.0227 14.6944 12.7914 14.3828 13.5977 14.3828Z" fill="black" stroke="black"/>
<path d="M248.639 23.4948C248.045 23.4948 236.355 23.4079 233.972 23.3942C233.737 23.3942 233.548 23.5818 233.548 23.8107V34.9327C233.548 35.1661 233.359 35.3492 233.129 35.3492H213.258C213.023 35.3492 212.838 35.1615 212.838 34.9327V3.44775C212.838 3.21433 213.027 3.03125 213.258 3.03125H254.452C254.609 3.03125 253.106 3.03125 254.922 3.06329C260.121 3.15025 266.962 5.51654 273.502 10.1713C277.273 12.8534 279.697 15.6133 281.537 17.7279C282.325 18.6387 288.036 25.3027 291.47 33.8891C292.673 36.8962 299.605 54.2063 292.106 71.9878C281.878 96.2411 253.516 100.704 251.755 100.951C251.737 100.951 251.719 100.951 251.7 100.951H211.884C211.649 100.951 211.465 100.763 211.465 100.534V66.6281C211.465 66.3993 211.649 66.2116 211.88 66.2116L233.336 65.9416C233.571 65.9416 233.765 66.1247 233.765 66.3581C233.765 71.0815 233.765 75.8004 233.765 80.5238C233.765 80.7435 233.926 80.922 234.148 80.9403C238.536 81.311 254.664 82.0845 264.97 71.379C267.639 68.6054 269.17 65.8363 269.912 64.3259C274.641 54.6869 273.194 43.3085 268.538 35.2531C268.151 34.5848 267.745 33.8891 267.077 32.992C261.795 25.9252 253.267 24.0807 248.695 23.504C248.676 23.504 248.663 23.504 248.644 23.504L248.639 23.4948Z" fill="black"/>
<path d="M203.074 45.4766L201.383 58.4889L244.614 56.9556C244.725 56.9556 244.831 56.9052 244.909 56.8229L248.136 53.3627C248.246 53.2482 248.279 53.0789 248.219 52.9279L246.26 47.8017C246.209 47.6689 246.098 47.5728 245.96 47.5408L236.801 45.4857C236.769 45.4811 236.741 45.4766 236.709 45.4766H203.074Z" fill="black" stroke="black" stroke-miterlimit="10"/>
<path d="M285.306 24.634C284.804 24.7393 285.702 26.6479 285.873 32.7124C286.025 38.1772 286.103 40.9097 286.085 43.2073C286.057 46.4341 286.007 50.7593 285.029 56.0091C284.559 58.5264 283.725 62.8654 281.434 67.9733C280.406 70.2663 277.899 75.7312 272.769 80.9856C265.656 88.2675 257.415 91.1373 252.953 92.3044C252.916 92.3136 252.884 92.3181 252.847 92.3181H222.831C222.729 92.3181 222.632 92.3548 222.554 92.4188L212.298 101.275C212.003 101.527 213.202 101.133 213.593 101.133C226.546 101.147 238.433 101.431 251.45 101.431C251.478 101.431 251.506 101.431 251.533 101.422C257.581 100.314 263.37 98.0805 266.431 96.5152C270.353 94.5059 273.211 92.8216 276.129 90.5835C280.351 87.343 283.356 84.4778 286.302 80.7705C294.871 70.0009 294.778 57.0526 294.755 53.9037C294.746 52.5215 294.654 48.8461 293.7 44.2463C292.962 40.6992 292.34 37.4495 289.473 31.6505C286.163 24.9498 285.537 24.5745 285.315 24.6203L285.306 24.634Z" fill="black" stroke="black" stroke-miterlimit="10"/>
<path d="M223.2 66.6999V88.262C223.2 88.7654 223.804 89.0309 224.177 88.6922L233.036 81.2317L232.709 67.2766C232.709 66.9562 232.446 66.6953 232.124 66.6953H223.195L223.2 66.6999Z" fill="black" stroke="black" stroke-miterlimit="10"/>
<path d="M94.96 111.898V95.0984H102.544V100.618H119.296V95.0984H126.88V111.898H119.296V106.378H102.544V111.898H94.96ZM160.724 95.0984V103.498C160.724 108.13 156.956 112.138 152.324 112.138H137.204C132.572 112.138 128.804 108.13 128.804 103.498V95.0984H136.388V103.498C136.388 104.818 137.468 105.898 138.788 105.898H150.74C152.06 105.898 153.14 104.818 153.14 103.498V95.0984H160.724ZM170.232 105.658V107.578H185.927C186.6 107.578 186.984 107.218 186.984 106.618C186.984 106.018 186.6 105.658 185.927 105.658H170.232ZM185.927 99.4184H170.232V101.338H185.927C186.6 101.338 186.984 100.978 186.984 100.378C186.984 99.7784 186.6 99.4184 185.927 99.4184ZM188.568 111.898H162.648V95.0984H188.568C192.096 95.0984 194.568 96.7784 194.568 99.8984C194.568 101.53 193.8 102.754 192.48 103.498C193.8 104.242 194.568 105.466 194.568 107.098C194.568 110.218 192.096 111.898 188.568 111.898Z" fill="black"/>
</svg>
